<!-- icon666.com - MILLIONS vector ICONS FREE --><svg id="Layer_1" viewBox="0 0 512 512" xmlns="http://www.w3.org/2000/svg" data-name="Layer 1"><path d="m6.005 55.9h77.07a30.194 30.194 0 0 1 29.562 22.787l37.891 144.313h73.647l-13.925-94.923h-72.227l-13.78-52.462a42.087 42.087 0 0 0 -41.168-31.751h-77.07a6.016 6.016 0 0 0 0 12.031zm147.682 179.129 20.017 76.24h-6.388a36.469 36.469 0 1 0 0 72.937h49.81a43.744 43.744 0 1 0 34.629 0h142.807a43.741 43.741 0 1 0 34.624 0h1.661a29.322 29.322 0 0 1 25.1 13.163l8.96 12.879a6.065 6.065 0 0 0 4.93 2.6 6.131 6.131 0 0 0 3.42-1.085 5.986 5.986 0 0 0 1.5-8.351l-8.949-12.926a41.567 41.567 0 0 0 -34.959-18.258h-263.533a24.486 24.486 0 1 1 0-48.971h71.619l-13.01-88.223zm97.377 88.223-13.01-88.223h74.131v88.223zm73.118 0v-88.223h83.152l-12.846 88.223zm82.436 0 12.845-88.223h74.01l-16.816 64.021a32.017 32.017 0 0 1 -31.341 24.2zm90.015-100.252 14.251-54.255a32.452 32.452 0 0 0 -31.34-40.667h-44.253l-14.045 94.922zm-73.475-94.922-14.041 94.922h-84.935v-94.923zm-110.973 0v94.922h-75.885l-13.925-94.922z" fill-rule="evenodd"></path></svg>